# xmcd
#
# Track frame offsets: 
#        182
#        33865
#        55515
#        69080
#        86277
#        97000
#        108020
#        128242
#        153040
#        182795
#        218780
#        236322
#        265647
#        304295
#        329140
#
# Disc length: 4609 seconds
#
# Revision: 1
# Processed by: cddbd v1.5.2PL0 Copyright (c) Steve Scherf et al.
# Submitted via: ExactAudioCopy v0.99pb1
#
DISCID=b911ff0f
DTITLE=BLUES Chicago Style - Chicago Blues Away From Home [CD3)
DYEAR=1997
DGENRE=Blues
TTITLE0=Lucky Lopez Evans - Good Lovings
TTITLE1=Lucky Lopez Evans - Tail Draggin
TTITLE2=Left Hand Frank - Oh Baby
TTITLE3=Carey Bell - Strange Woman
TTITLE4=Johnny Mars - Mighty Mars
TTITLE5=Johnny Mars - Rocket 88
TTITLE6=Eddie C Campbell - Same Things
TTITLE7=Eddie C Campbell - Cha Cha In Blues
TTITLE8=Carey Bell - I'm Going Upstairs
TTITLE9=Lucky Lopez Evans - Extra Extra
TTITLE10=Mojo Buford - Jack Potato Boogie
TTITLE11=Mojo Buford - Jealous Of My Baby
TTITLE12=Johnny Mars - Desert Island
TTITLE13=Louisiana Red - The Best Place
TTITLE14=Louisiana Red - Valerie
EXTD=YEAR: 1997
EXTT0=
EXTT1=
EXTT2=
EXTT3=
EXTT4=
EXTT5=
EXTT6=
EXTT7=
EXTT8=
EXTT9=
EXTT10=
EXTT11=
EXTT12=
EXTT13=
EXTT14=
PLAYORDER=
